<?xml version="1.0" encoding="UTF-8" standalone="no" ?>
<!DOCTYPE svg PUBLIC "-//W3C//DTD SVG 1.1//EN" "http://www.w3.org/Graphics/SVG/1.1/DTD/svg11.dtd">
<svg xmlns="http://www.w3.org/2000/svg" xmlns:xlink="http://www.w3.org/1999/xlink" version="1.1" viewBox="0 0 400 400" xml:space="preserve">
<desc>Created with Fabric.js 3.6.2</desc>
<defs>
</defs>
<g transform="matrix(1.33 0 0 1.33 200 200.58)" id="_Path_"  >
<path style="stroke: rgb(0,0,0); stroke-width: 4; stroke-dasharray: none; stroke-linecap: butt; stroke-dashoffset: 0; stroke-linejoin: miter; stroke-miterlimit: 10; fill: rgb(232,178,7); fill-rule: nonzero; opacity: 1;"  transform=" translate(-75, -75.43)" d="M 23.86 22.77 C -1.41 43.27 0.53 91.37 18.94 115.59 c 21.9 28.81 80.15 48.65 124.37 0 c 4.08 -4.49 0 -9.31 -4.2 -7.5 C 82 132.69 30.84 62.59 36.52 27.94 C 38.63 15.11 44 5.77 33 5.77 S 23.86 22.77 23.86 22.77 Z" stroke-linecap="round" />
</g>
<g transform="matrix(1.33 0 0 1.33 142.24 120.29)" id="ART"  >
<path style="stroke: none; stroke-width: 1; stroke-dasharray: none; stroke-linecap: butt; stroke-dashoffset: 0; stroke-linejoin: miter; stroke-miterlimit: 4; fill: rgb(132,145,12); fill-rule: nonzero; opacity: 1;"  transform=" translate(-31.68, -15.22)" d="M 31.38 22.69 a 11.85 11.85 0 0 1 -5.62 -1.23 c -0.13 -2.51 0 -8.57 2.49 -11.53 a 5.71 5.71 0 0 1 4.27 -2.19 c 2 0 3.79 0.2 4.59 1.19 c 1.2 1.47 0.13 6.22 -0.95 10.84 c -0.18 0.76 -0.35 1.66 -0.53 2.45 A 15.27 15.27 0 0 1 31.38 22.69 Z" stroke-linecap="round" />
</g>
<g transform="matrix(1.33 0 0 1.33 140.97 130.05)" id="ART"  >
<path style="stroke: rgb(0,0,0); stroke-width: 2; stroke-dasharray: none; stroke-linecap: butt; stroke-dashoffset: 0; stroke-linejoin: miter; stroke-miterlimit: 10; fill: none; fill-rule: nonzero; opacity: 1;"  transform=" translate(-30.73, -22.54)" d="M 24.31 21.66 c 2.31 2.28 11 1.91 12.84 1.25" stroke-linecap="round" />
</g>
<g transform="matrix(1.33 0 0 1.33 210.38 199.17)" id="ART"  >
<path style="stroke: rgb(0,0,0); stroke-width: 2; stroke-dasharray: none; stroke-linecap: butt; stroke-dashoffset: 0; stroke-linejoin: miter; stroke-miterlimit: 10; fill: rgb(241,242,6); fill-rule: nonzero; opacity: 1;"  transform=" translate(-82.79, -74.38)" d="M 36.67 23.92 C 18.59 20 16.67 72.13 34.5 95.17 c 24.71 31.92 69.5 40.83 109 14.1 c -1.17 -1.34 -2 -3.06 -4.24 -2.24 c -13.63 5 -46.42 14.64 -79.4 -21.55 C 34.29 57.43 36.67 32.83 36.67 23.92 Z" stroke-linecap="round" />
</g>
</svg>