<svg width="133" height="44" viewBox="0 0 133 44" fill="none" xmlns="http://www.w3.org/2000/svg">
<path d="M13.0607 0.635003C12.4749 0.0492168 11.5251 0.0492168 10.9393 0.635003L1.3934 10.1809C0.807612 10.7667 0.807612 11.7165 1.3934 12.3023C1.97918 12.8881 2.92893 12.8881 3.51472 12.3023L12 3.81698L20.4853 12.3023C21.0711 12.8881 22.0208 12.8881 22.6066 12.3023C23.1924 11.7165 23.1924 10.7667 22.6066 10.1809L13.0607 0.635003ZM13.5 43.3057V1.69566H10.5V43.3057H13.5Z" fill="#FF5A30"/>
<line x1="10.5" y1="42.5" x2="132.5" y2="42.5" stroke="#FF5A30" stroke-width="3"/>
<path d="M10.8182 35V11.7273H13.6364V32.5H24.4545V35H10.8182ZM35.7727 35.3636C34.0909 35.3636 32.6402 34.9924 31.4205 34.25C30.2083 33.5 29.2727 32.4545 28.6136 31.1136C27.9621 29.7652 27.6364 28.197 27.6364 26.4091C27.6364 24.6212 27.9621 23.0455 28.6136 21.6818C29.2727 20.3106 30.1894 19.2424 31.3636 18.4773C32.5455 17.7045 33.9242 17.3182 35.5 17.3182C36.4091 17.3182 37.3068 17.4697 38.1932 17.7727C39.0795 18.0758 39.8864 18.5682 40.6136 19.25C41.3409 19.9242 41.9205 20.8182 42.3523 21.9318C42.7841 23.0455 43 24.4167 43 26.0455V27.1818H29.5455V24.8636H40.2727C40.2727 23.8788 40.0758 23 39.6818 22.2273C39.2955 21.4545 38.7424 20.8447 38.0227 20.3977C37.3106 19.9508 36.4697 19.7273 35.5 19.7273C34.4318 19.7273 33.5076 19.9924 32.7273 20.5227C31.9545 21.0455 31.3598 21.7273 30.9432 22.5682C30.5265 23.4091 30.3182 24.3106 30.3182 25.2727V26.8182C30.3182 28.1364 30.5455 29.2538 31 30.1705C31.4621 31.0795 32.1023 31.7727 32.9205 32.25C33.7386 32.7197 34.6894 32.9545 35.7727 32.9545C36.4773 32.9545 37.1136 32.8561 37.6818 32.6591C38.2576 32.4545 38.7538 32.1515 39.1705 31.75C39.5871 31.3409 39.9091 30.8333 40.1364 30.2273L42.7273 30.9545C42.4545 31.8333 41.9962 32.6061 41.3523 33.2727C40.7083 33.9318 39.9129 34.447 38.9659 34.8182C38.0189 35.1818 36.9545 35.3636 35.7727 35.3636ZM60.821 17.5455L54.3665 35H51.6392L45.1847 17.5455H48.0938L52.9119 31.4545H53.0938L57.9119 17.5455H60.821ZM71.054 35.3636C69.3722 35.3636 67.9214 34.9924 66.7017 34.25C65.4896 33.5 64.554 32.4545 63.8949 31.1136C63.2434 29.7652 62.9176 28.197 62.9176 26.4091C62.9176 24.6212 63.2434 23.0455 63.8949 21.6818C64.554 20.3106 65.4706 19.2424 66.6449 18.4773C67.8267 17.7045 69.2055 17.3182 70.7812 17.3182C71.6903 17.3182 72.5881 17.4697 73.4744 17.7727C74.3608 18.0758 75.1676 18.5682 75.8949 19.25C76.6222 19.9242 77.2017 20.8182 77.6335 21.9318C78.0653 23.0455 78.2812 24.4167 78.2812 26.0455V27.1818H64.8267V24.8636H75.554C75.554 23.8788 75.357 23 74.9631 22.2273C74.5767 21.4545 74.0237 20.8447 73.304 20.3977C72.5919 19.9508 71.7509 19.7273 70.7812 19.7273C69.7131 19.7273 68.7888 19.9924 68.0085 20.5227C67.2358 21.0455 66.6411 21.7273 66.2244 22.5682C65.8078 23.4091 65.5994 24.3106 65.5994 25.2727V26.8182C65.5994 28.1364 65.8267 29.2538 66.2812 30.1705C66.7434 31.0795 67.3835 31.7727 68.2017 32.25C69.0199 32.7197 69.9706 32.9545 71.054 32.9545C71.7585 32.9545 72.3949 32.8561 72.9631 32.6591C73.5388 32.4545 74.035 32.1515 74.4517 31.75C74.8684 31.3409 75.1903 30.8333 75.4176 30.2273L78.0085 30.9545C77.7358 31.8333 77.2775 32.6061 76.6335 33.2727C75.9896 33.9318 75.1941 34.447 74.2472 34.8182C73.3002 35.1818 72.2358 35.3636 71.054 35.3636ZM85.0426 11.7273V35H82.3608V11.7273H85.0426ZM105.591 11.7273H108.409V27.1364C108.409 28.7273 108.034 30.1477 107.284 31.3977C106.542 32.6402 105.492 33.6212 104.136 34.3409C102.78 35.053 101.189 35.4091 99.3636 35.4091C97.5379 35.4091 95.947 35.053 94.5909 34.3409C93.2348 33.6212 92.1818 32.6402 91.4318 31.3977C90.6894 30.1477 90.3182 28.7273 90.3182 27.1364V11.7273H93.1364V26.9091C93.1364 28.0455 93.3864 29.0568 93.8864 29.9432C94.3864 30.822 95.0985 31.5152 96.0227 32.0227C96.9545 32.5227 98.0682 32.7727 99.3636 32.7727C100.659 32.7727 101.773 32.5227 102.705 32.0227C103.636 31.5152 104.348 30.822 104.841 29.9432C105.341 29.0568 105.591 28.0455 105.591 26.9091V11.7273ZM113.673 41.5455V17.5455H116.264V20.3182H116.582C116.779 20.0152 117.052 19.6288 117.401 19.1591C117.757 18.6818 118.264 18.2576 118.923 17.8864C119.59 17.5076 120.491 17.3182 121.628 17.3182C123.098 17.3182 124.393 17.6856 125.514 18.4205C126.635 19.1553 127.51 20.197 128.139 21.5455C128.768 22.8939 129.082 24.4848 129.082 26.3182C129.082 28.1667 128.768 29.7689 128.139 31.125C127.51 32.4735 126.639 33.5189 125.526 34.2614C124.412 34.9962 123.128 35.3636 121.673 35.3636C120.552 35.3636 119.654 35.178 118.98 34.8068C118.306 34.428 117.787 34 117.423 33.5227C117.06 33.0379 116.779 32.6364 116.582 32.3182H116.355V41.5455H113.673ZM116.31 26.2727C116.31 27.5909 116.503 28.7538 116.889 29.7614C117.276 30.7614 117.84 31.5455 118.582 32.1136C119.325 32.6742 120.234 32.9545 121.31 32.9545C122.431 32.9545 123.366 32.6591 124.116 32.0682C124.874 31.4697 125.442 30.6667 125.821 29.6591C126.207 28.6439 126.401 27.5152 126.401 26.2727C126.401 25.0455 126.211 23.9394 125.832 22.9545C125.461 21.9621 124.897 21.178 124.139 20.6023C123.389 20.0189 122.446 19.7273 121.31 19.7273C120.219 19.7273 119.302 20.0038 118.56 20.5568C117.817 21.1023 117.257 21.8674 116.878 22.8523C116.499 23.8295 116.31 24.9697 116.31 26.2727Z" fill="#FF5A30"/>
</svg>
