<?xml version="1.0" encoding="UTF-8" standalone="no" ?>
<!DOCTYPE svg PUBLIC "-//W3C//DTD SVG 1.1//EN" "http://www.w3.org/Graphics/SVG/1.1/DTD/svg11.dtd">
<svg xmlns="http://www.w3.org/2000/svg" xmlns:xlink="http://www.w3.org/1999/xlink" version="1.1" width="400" height="400" viewBox="0 0 400 400" xml:space="preserve">
<desc>Created with Fabric.js 3.6.2</desc>
<defs>
</defs>
<g transform="matrix(1.33 0 0 1.33 200.01 231.68)" id="_Path_"  >
<path style="stroke: rgb(0,0,0); stroke-width: 4; stroke-dasharray: none; stroke-linecap: butt; stroke-dashoffset: 0; stroke-linejoin: miter; stroke-miterlimit: 10; fill: rgb(255,248,0); fill-rule: nonzero; opacity: 1;"  transform=" translate(-75, -98.76)" d="M 115.4 98.76 c 0 33.38 -21.88 46.43 -39.54 46.43 H 74.15 c -17.66 0 -39.54 -13.06 -39.54 -46.43 c 0 -21.46 11.25 -46.43 39.54 -46.43 h 1.71 C 104.14 52.33 115.4 77.3 115.4 98.76 Z" stroke-linecap="round" />
</g>
<g transform="matrix(1.33 0 0 1.33 178.63 260.2)" id="ART"  >
<polyline style="stroke: rgb(0,0,0); stroke-width: 2; stroke-dasharray: none; stroke-linecap: butt; stroke-dashoffset: 0; stroke-linejoin: miter; stroke-miterlimit: 10; fill: none; fill-rule: nonzero; opacity: 1;"  points="24.3,24.3 16.03,16.03 2.89,2.89 -10.25,-10.25 -23.38,-23.38 -24.3,-24.3 " />
</g>
<g transform="matrix(1.33 0 0 1.33 208.51 220.01)" id="ART"  >
<polyline style="stroke: rgb(0,0,0); stroke-width: 2; stroke-dasharray: none; stroke-linecap: butt; stroke-dashoffset: 0; stroke-linejoin: miter; stroke-miterlimit: 10; fill: none; fill-rule: nonzero; opacity: 1;"  points="30.25,30.26 19.9,19.9 6.76,6.76 -6.38,-6.38 -19.52,-19.52 -30.25,-30.25 " />
</g>
<g transform="matrix(1.33 0 0 1.33 221.37 260.2)" id="ART"  >
<polyline style="stroke: rgb(0,0,0); stroke-width: 2; stroke-dasharray: none; stroke-linecap: butt; stroke-dashoffset: 0; stroke-linejoin: miter; stroke-miterlimit: 10; fill: none; fill-rule: nonzero; opacity: 1;"  points="24.3,-24.3 23.39,-23.38 10.25,-10.25 -2.89,2.89 -16.03,16.03 -24.3,24.3 " />
</g>
<g transform="matrix(1.33 0 0 1.33 191.49 220.01)" id="ART"  >
<polyline style="stroke: rgb(0,0,0); stroke-width: 2; stroke-dasharray: none; stroke-linecap: butt; stroke-dashoffset: 0; stroke-linejoin: miter; stroke-miterlimit: 10; fill: none; fill-rule: nonzero; opacity: 1;"  points="30.25,-30.25 19.52,-19.52 6.38,-6.38 -6.76,6.76 -19.9,19.9 -30.25,30.26 " />
</g>
<g transform="matrix(1.33 0 0 1.33 223.69 200.17)" id="ART"  >
<polyline style="stroke: rgb(0,0,0); stroke-width: 2; stroke-dasharray: none; stroke-linecap: butt; stroke-dashoffset: 0; stroke-linejoin: miter; stroke-miterlimit: 10; fill: none; fill-rule: nonzero; opacity: 1;"  points="-22.62,-22.63 -17.77,-17.77 -4.63,-4.64 8.51,8.5 21.65,21.64 22.62,22.61 22.62,22.63 " />
</g>
<g transform="matrix(1.33 0 0 1.33 193.71 240.24)" id="ART"  >
<polyline style="stroke: rgb(0,0,0); stroke-width: 2; stroke-dasharray: none; stroke-linecap: butt; stroke-dashoffset: 0; stroke-linejoin: miter; stroke-miterlimit: 10; fill: none; fill-rule: nonzero; opacity: 1;"  points="30.59,30.59 17.86,17.86 4.72,4.72 -8.42,-8.42 -21.55,-21.55 -30.59,-30.59 " />
</g>
<g transform="matrix(1.33 0 0 1.33 176.31 200.17)" id="ART"  >
<polyline style="stroke: rgb(0,0,0); stroke-width: 2; stroke-dasharray: none; stroke-linecap: butt; stroke-dashoffset: 0; stroke-linejoin: miter; stroke-miterlimit: 10; fill: none; fill-rule: nonzero; opacity: 1;"  points="-22.62,22.63 -22.62,22.61 -21.64,21.64 -8.5,8.5 4.63,-4.64 17.77,-17.77 22.62,-22.63 " />
</g>
<g transform="matrix(1.33 0 0 1.33 206.3 240.23)" id="ART"  >
<polyline style="stroke: rgb(0,0,0); stroke-width: 2; stroke-dasharray: none; stroke-linecap: butt; stroke-dashoffset: 0; stroke-linejoin: miter; stroke-miterlimit: 10; fill: none; fill-rule: nonzero; opacity: 1;"  points="30.59,-30.6 21.56,-21.55 8.42,-8.42 -4.72,4.72 -17.86,17.86 -30.59,30.59 " />
</g>
<g transform="matrix(1.33 0 0 1.33 204.51 141.44)" id="ART"  >
<path style="stroke: rgb(0,0,0); stroke-width: 3; stroke-dasharray: none; stroke-linecap: butt; stroke-dashoffset: 0; stroke-linejoin: miter; stroke-miterlimit: 10; fill: rgb(5,122,58); fill-rule: nonzero; opacity: 1;"  transform=" translate(-78.38, -31.08)" d="M 82.93 54.24 c 0 -7 2.5 -36.66 9.95 -49 c -12.72 3.32 -29 24.11 -29 49 C 63.86 57.61 82.93 58 82.93 54.24 Z" stroke-linecap="round" />
</g>
<g transform="matrix(1.33 0 0 1.33 195.17 141.44)" id="ART"  >
<path style="stroke: rgb(0,0,0); stroke-width: 3; stroke-dasharray: none; stroke-linecap: butt; stroke-dashoffset: 0; stroke-linejoin: miter; stroke-miterlimit: 10; fill: rgb(5,122,58); fill-rule: nonzero; opacity: 1;"  transform=" translate(-71.38, -31.08)" d="M 66.79 54.24 c 0 -7 -2.43 -36.66 -9.67 -49 c 12.36 3.32 28.51 24.11 28.51 49 C 85.63 57.61 66.79 58 66.79 54.24 Z" stroke-linecap="round" />
</g>
<g transform="matrix(1.33 0 0 1.33 209.51 151.43)" id="ART"  >
<path style="stroke: rgb(0,0,0); stroke-width: 3; stroke-dasharray: none; stroke-linecap: butt; stroke-dashoffset: 0; stroke-linejoin: miter; stroke-miterlimit: 10; fill: rgb(5,122,58); fill-rule: nonzero; opacity: 1;"  transform=" translate(-82.13, -38.57)" d="M 86.34 55 c 0 -5 3.57 -26 14.23 -34.77 C 82.38 22.6 63.69 37.35 63.69 55 C 63.69 57.41 86.34 57.7 86.34 55 Z" stroke-linecap="round" />
</g>
<g transform="matrix(1.33 0 0 1.33 190.01 151.43)" id="ART"  >
<path style="stroke: rgb(0,0,0); stroke-width: 3; stroke-dasharray: none; stroke-linecap: butt; stroke-dashoffset: 0; stroke-linejoin: miter; stroke-miterlimit: 10; fill: rgb(5,122,58); fill-rule: nonzero; opacity: 1;"  transform=" translate(-67.5, -38.57)" d="M 63.26 55 c 0 -5 -3.47 -26 -13.83 -34.77 C 67.11 22.6 85.58 37.35 85.58 55 C 85.58 57.41 63.26 57.7 63.26 55 Z" stroke-linecap="round" />
</g>
<g transform="matrix(1.33 0 0 1.33 199.91 172.6)" id="ART"  >
<path style="stroke: rgb(0,0,0); stroke-width: 4; stroke-dasharray: none; stroke-linecap: butt; stroke-dashoffset: 0; stroke-linejoin: miter; stroke-miterlimit: 10; fill: rgb(5,122,58); fill-rule: nonzero; opacity: 1;"  transform=" translate(-74.93, -54.45)" d="M 74.95 55 a 0.66 0.66 0 0 1 0 0.25 a 0.51 0.51 0 0 1 -0.05 -0.25 c 0 -0.46 0 -0.91 0.05 -1.35 C 74.94 54.12 74.95 54.57 74.95 55 Z" stroke-linecap="round" />
</g>
<g transform="matrix(1.33 0 0 1.33 200 162.13)" id="ART"  >
<path style="stroke: rgb(0,0,0); stroke-width: 3; stroke-dasharray: none; stroke-linecap: square; stroke-dashoffset: 0; stroke-linejoin: miter; stroke-miterlimit: 4; fill: rgb(5,122,58); fill-rule: nonzero; opacity: 1;"  transform=" translate(-75, -46.6)" d="M 75.32 40 c 10.48 -6.5 25.44 -8.41 34.16 -5 c -15.5 2.33 -22.74 15 -22.74 20 c 0 2.58 -5.87 4.86 -11.83 4.86 S 63.13 57.6 63.13 55 c 0 -5 -7.21 -17.64 -22.61 -20 C 53.69 29.83 80 38.91 83.89 55.64" stroke-linecap="round" />
</g>
</svg>