<?xml version="1.0" encoding="UTF-8" standalone="no" ?>
<!DOCTYPE svg PUBLIC "-//W3C//DTD SVG 1.1//EN" "http://www.w3.org/Graphics/SVG/1.1/DTD/svg11.dtd">
<svg xmlns="http://www.w3.org/2000/svg" xmlns:xlink="http://www.w3.org/1999/xlink" version="1.1" width="400" height="400" viewBox="0 0 400 400" xml:space="preserve">
<desc>Created with Fabric.js 3.6.2</desc>
<defs>
</defs>
<g transform="matrix(1.33 0 0 1.33 200 217.03)" id="ART"  >
<path style="stroke: rgb(0,0,0); stroke-width: 4; stroke-dasharray: none; stroke-linecap: butt; stroke-dashoffset: 0; stroke-linejoin: miter; stroke-miterlimit: 10; fill: rgb(216,68,43); fill-rule: nonzero; opacity: 1;"  transform=" translate(-75, -87.78)" d="M 131.61 69.3 C 131.61 101.39 92.4 145 75 145 S 18.39 101.39 18.39 69.3 S 43.74 30.55 75 30.55 S 131.61 37.22 131.61 69.3 Z" stroke-linecap="round" />
</g>
<g transform="matrix(1.33 0 0 1.33 144.87 199.03)" id="ART"  >
<circle style="stroke: none; stroke-width: 1; stroke-dasharray: none; stroke-linecap: butt; stroke-dashoffset: 0; stroke-linejoin: miter; stroke-miterlimit: 4; fill: rgb(0,0,0); fill-rule: nonzero; opacity: 1;"  cx="0" cy="0" r="3.04" />
</g>
<g transform="matrix(1.33 0 0 1.33 179.92 225.8)" id="ART"  >
<circle style="stroke: none; stroke-width: 1; stroke-dasharray: none; stroke-linecap: butt; stroke-dashoffset: 0; stroke-linejoin: miter; stroke-miterlimit: 4; fill: rgb(0,0,0); fill-rule: nonzero; opacity: 1;"  cx="0" cy="0" r="3.04" />
</g>
<g transform="matrix(1.33 0 0 1.33 254.64 212.03)" id="ART"  >
<circle style="stroke: none; stroke-width: 1; stroke-dasharray: none; stroke-linecap: butt; stroke-dashoffset: 0; stroke-linejoin: miter; stroke-miterlimit: 4; fill: rgb(0,0,0); fill-rule: nonzero; opacity: 1;"  cx="0" cy="0" r="3.04" />
</g>
<g transform="matrix(1.33 0 0 1.33 218.45 219.59)" id="ART"  >
<circle style="stroke: none; stroke-width: 1; stroke-dasharray: none; stroke-linecap: butt; stroke-dashoffset: 0; stroke-linejoin: miter; stroke-miterlimit: 4; fill: rgb(0,0,0); fill-rule: nonzero; opacity: 1;"  cx="0" cy="0" r="3.04" />
</g>
<g transform="matrix(1.33 0 0 1.33 199.95 269.69)" id="ART"  >
<circle style="stroke: none; stroke-width: 1; stroke-dasharray: none; stroke-linecap: butt; stroke-dashoffset: 0; stroke-linejoin: miter; stroke-miterlimit: 4; fill: rgb(0,0,0); fill-rule: nonzero; opacity: 1;"  cx="0" cy="0" r="3.04" />
</g>
<g transform="matrix(1.33 0 0 1.33 203.33 240.36)" id="ART"  >
<circle style="stroke: none; stroke-width: 1; stroke-dasharray: none; stroke-linecap: butt; stroke-dashoffset: 0; stroke-linejoin: miter; stroke-miterlimit: 4; fill: rgb(0,0,0); fill-rule: nonzero; opacity: 1;"  cx="0" cy="0" r="3.04" />
</g>
<g transform="matrix(1.33 0 0 1.33 241.31 233.92)" id="ART"  >
<circle style="stroke: none; stroke-width: 1; stroke-dasharray: none; stroke-linecap: butt; stroke-dashoffset: 0; stroke-linejoin: miter; stroke-miterlimit: 4; fill: rgb(0,0,0); fill-rule: nonzero; opacity: 1;"  cx="0" cy="0" r="3.04" />
</g>
<g transform="matrix(1.33 0 0 1.33 179.92 255.81)" id="ART"  >
<circle style="stroke: none; stroke-width: 1; stroke-dasharray: none; stroke-linecap: butt; stroke-dashoffset: 0; stroke-linejoin: miter; stroke-miterlimit: 4; fill: rgb(0,0,0); fill-rule: nonzero; opacity: 1;"  cx="0" cy="0" r="3.04" />
</g>
<g transform="matrix(1.33 0 0 1.33 199.28 209.52)" id="ART"  >
<circle style="stroke: none; stroke-width: 1; stroke-dasharray: none; stroke-linecap: butt; stroke-dashoffset: 0; stroke-linejoin: miter; stroke-miterlimit: 4; fill: rgb(0,0,0); fill-rule: nonzero; opacity: 1;"  cx="0" cy="0" r="3.04" />
</g>
<g transform="matrix(1.33 0 0 1.33 156.97 229.87)" id="ART"  >
<circle style="stroke: none; stroke-width: 1; stroke-dasharray: none; stroke-linecap: butt; stroke-dashoffset: 0; stroke-linejoin: miter; stroke-miterlimit: 4; fill: rgb(0,0,0); fill-rule: nonzero; opacity: 1;"  cx="0" cy="0" r="3.04" />
</g>
<g transform="matrix(1.33 0 0 1.33 229.15 255.81)" id="ART"  >
<circle style="stroke: none; stroke-width: 1; stroke-dasharray: none; stroke-linecap: butt; stroke-dashoffset: 0; stroke-linejoin: miter; stroke-miterlimit: 4; fill: rgb(0,0,0); fill-rule: nonzero; opacity: 1;"  cx="0" cy="0" r="3.04" />
</g>
<g transform="matrix(1.33 0 0 1.33 229.15 199.03)" id="ART"  >
<circle style="stroke: none; stroke-width: 1; stroke-dasharray: none; stroke-linecap: butt; stroke-dashoffset: 0; stroke-linejoin: miter; stroke-miterlimit: 4; fill: rgb(0,0,0); fill-rule: nonzero; opacity: 1;"  cx="0" cy="0" r="3.04" />
</g>
<g transform="matrix(1.33 0 0 1.33 197.17 185.92)" id="ART"  >
<circle style="stroke: none; stroke-width: 1; stroke-dasharray: none; stroke-linecap: butt; stroke-dashoffset: 0; stroke-linejoin: miter; stroke-miterlimit: 4; fill: rgb(0,0,0); fill-rule: nonzero; opacity: 1;"  cx="0" cy="0" r="3.04" />
</g>
<g transform="matrix(1.33 0 0 1.33 169.72 200.85)" id="ART"  >
<circle style="stroke: none; stroke-width: 1; stroke-dasharray: none; stroke-linecap: butt; stroke-dashoffset: 0; stroke-linejoin: miter; stroke-miterlimit: 4; fill: rgb(0,0,0); fill-rule: nonzero; opacity: 1;"  cx="0" cy="0" r="3.04" />
</g>
<g transform="matrix(1.33 0 0 1.33 256.31 181.87)" id="ART"  >
<circle style="stroke: none; stroke-width: 1; stroke-dasharray: none; stroke-linecap: butt; stroke-dashoffset: 0; stroke-linejoin: miter; stroke-miterlimit: 4; fill: rgb(0,0,0); fill-rule: nonzero; opacity: 1;"  cx="0" cy="0" r="3.04" />
</g>
<g transform="matrix(1.33 0 0 1.33 144.87 173.76)" id="ART"  >
<circle style="stroke: none; stroke-width: 1; stroke-dasharray: none; stroke-linecap: butt; stroke-dashoffset: 0; stroke-linejoin: miter; stroke-miterlimit: 4; fill: rgb(0,0,0); fill-rule: nonzero; opacity: 1;"  cx="0" cy="0" r="3.04" />
</g>
<g transform="matrix(1.33 0 0 1.33 205.3 130.98)" id="ART"  >
<path style="stroke: rgb(0,0,0); stroke-width: 4; stroke-dasharray: none; stroke-linecap: round; stroke-dashoffset: 0; stroke-linejoin: round; stroke-miterlimit: 4; fill: none; fill-rule: nonzero; opacity: 1;"  transform=" translate(-78.98, -23.23)" d="M 77 41.66 s -5.6 -26.48 5.38 -36.85" stroke-linecap="round" />
</g>
<g transform="matrix(1.33 0 0 1.33 199.99 158.09)" id="ART"  >
<path style="stroke: rgb(0,0,0); stroke-width: 4; stroke-dasharray: none; stroke-linecap: butt; stroke-dashoffset: 0; stroke-linejoin: miter; stroke-miterlimit: 10; fill: rgb(73,175,32); fill-rule: nonzero; opacity: 1;"  transform=" translate(-74.99, -43.57)" d="M 94.64 37.5 c 7.09 8.19 7.48 18.78 8 22.7 C 91.3 57 75.34 46.41 75 45.36 C 74.66 46.41 58.69 57 47.34 60.21 c 0.53 -3.93 0.92 -14.51 8 -22.7 a 70.59 70.59 0 0 0 -27 3.3 c 2.59 -4.32 23.32 -21.45 46.65 -10 c 23.42 -11.42 44.06 5.71 46.65 10 A 70.65 70.65 0 0 0 94.64 37.5 Z" stroke-linecap="round" />
</g>
</svg>